<svg width="41" height="41" viewBox="0 0 41 41" fill="none" xmlns="http://www.w3.org/2000/svg">
<rect x="0.950195" y="0.0800781" width="40" height="40" rx="20" fill="white"/>
<path d="M24.3478 20.4818L19.2503 25.5793C19.1277 25.7019 18.9788 25.7632 18.8036 25.7632C18.6285 25.7632 18.4796 25.7019 18.3569 25.5793L17.7789 25.0013C17.6563 24.8786 17.5862 24.7297 17.5687 24.5546C17.5687 24.3794 17.63 24.2305 17.7526 24.1079L21.8253 20.0352L17.7526 15.9624C17.63 15.8398 17.5687 15.6909 17.5687 15.5157C17.5862 15.3406 17.6563 15.1917 17.7789 15.0691L18.3569 14.491C18.4796 14.3684 18.6285 14.3071 18.8036 14.3071C18.9788 14.3071 19.1277 14.3684 19.2503 14.491L24.3478 19.5885C24.4879 19.7111 24.558 19.86 24.558 20.0352C24.558 20.2103 24.4879 20.3592 24.3478 20.4818Z" fill="black"/>
</svg>
