<svg width="41" height="41" viewBox="0 0 41 41" fill="none" xmlns="http://www.w3.org/2000/svg">
<rect x="0.0200195" y="0.0800781" width="40" height="40" rx="20" fill="white"/>
<path d="M16.8356 19.5885L21.933 14.491C22.0557 14.3684 22.2046 14.3071 22.3797 14.3071C22.5549 14.3071 22.7038 14.3684 22.8264 14.491L23.4045 15.0691C23.5271 15.1917 23.5884 15.3406 23.5884 15.5157C23.6059 15.6909 23.5534 15.8398 23.4307 15.9624L19.358 20.0352L23.4307 24.1079C23.5534 24.2305 23.6059 24.3794 23.5884 24.5546C23.5884 24.7297 23.5271 24.8786 23.4045 25.0013L22.8264 25.5793C22.7038 25.7019 22.5549 25.7632 22.3797 25.7632C22.2046 25.7632 22.0557 25.7019 21.933 25.5793L16.8356 20.4818C16.6954 20.3592 16.6254 20.2103 16.6254 20.0352C16.6254 19.86 16.6954 19.7111 16.8356 19.5885Z" fill="black"/>
</svg>
