<svg width="376" height="45" viewBox="0 0 376 45" fill="none" xmlns="http://www.w3.org/2000/svg">
<rect x="0.549805" y="0.689941" width="375.31" height="44" rx="22" fill="#F1352B"/>
<path d="M53.7828 27.78V17.5982H59.9276V18.692H55.0157V22.1323H59.6095V23.2261H55.0157V26.6863H60.0072V27.78H53.7828ZM62.8659 20.1437L64.6954 23.2658L66.5249 20.1437H67.8772L65.4113 23.9618L67.8772 27.78H66.5249L64.6954 24.817L62.8659 27.78H61.5136L63.9397 23.9618L61.5136 20.1437H62.8659ZM69.5514 30.6437V20.1437H70.6849V21.3567H70.8241C70.9103 21.2242 71.0296 21.0551 71.1821 20.8496C71.3379 20.6408 71.5599 20.4552 71.8483 20.2928C72.1399 20.1271 72.5344 20.0442 73.0315 20.0442C73.6745 20.0442 74.2413 20.205 74.7318 20.5265C75.2223 20.848 75.6051 21.3037 75.8802 21.8937C76.1553 22.4836 76.2929 23.1797 76.2929 23.9817C76.2929 24.7904 76.1553 25.4914 75.8802 26.0847C75.6051 26.6747 75.224 27.1321 74.7368 27.4569C74.2496 27.7784 73.6878 27.9391 73.0514 27.9391C72.5609 27.9391 72.1681 27.8579 71.8731 27.6955C71.5782 27.5298 71.3511 27.3425 71.192 27.1337C71.0329 26.9216 70.9103 26.7459 70.8241 26.6067H70.7247V30.6437H69.5514ZM70.7048 23.9618C70.7048 24.5386 70.7893 25.0473 70.9584 25.4881C71.1274 25.9256 71.3743 26.2687 71.6991 26.5172C72.0239 26.7625 72.4217 26.8851 72.8923 26.8851C73.3828 26.8851 73.7922 26.7559 74.1203 26.4974C74.4517 26.2355 74.7003 25.8842 74.866 25.4434C75.0351 24.9993 75.1196 24.5054 75.1196 23.9618C75.1196 23.4249 75.0367 22.941 74.871 22.5101C74.7086 22.076 74.4617 21.7329 74.1302 21.481C73.8021 21.2258 73.3895 21.0982 72.8923 21.0982C72.415 21.0982 72.014 21.2192 71.6892 21.4611C71.3644 21.6998 71.1191 22.0345 70.9534 22.4654C70.7877 22.893 70.7048 23.3918 70.7048 23.9618ZM78.0827 27.78V20.1437H79.2559V27.78H78.0827ZM78.6792 18.8709C78.4506 18.8709 78.2533 18.7931 78.0876 18.6373C77.9252 18.4815 77.844 18.2942 77.844 18.0755C77.844 17.8567 77.9252 17.6695 78.0876 17.5137C78.2533 17.3579 78.4506 17.28 78.6792 17.28C78.9079 17.28 79.1035 17.3579 79.2659 17.5137C79.4316 17.6695 79.5145 17.8567 79.5145 18.0755C79.5145 18.2942 79.4316 18.4815 79.2659 18.6373C79.1035 18.7931 78.9079 18.8709 78.6792 18.8709ZM81.4049 27.78V20.1437H82.5384V21.2971H82.618C82.7572 20.9192 83.0091 20.6127 83.3737 20.3773C83.7383 20.142 84.1492 20.0243 84.6066 20.0243C84.6928 20.0243 84.8005 20.026 84.9298 20.0293C85.059 20.0326 85.1568 20.0376 85.2231 20.0442V21.2374C85.1833 21.2275 85.0922 21.2126 84.9497 21.1927C84.8105 21.1695 84.663 21.1579 84.5072 21.1579C84.136 21.1579 83.8045 21.2358 83.5129 21.3915C83.2245 21.544 82.9958 21.7561 82.8268 22.0279C82.6611 22.2964 82.5782 22.6029 82.5782 22.9476V27.78H81.4049ZM89.5832 27.9391C88.8474 27.9391 88.2127 27.7767 87.6791 27.4519C87.1488 27.1238 86.7394 26.6664 86.4511 26.0797C86.166 25.4898 86.0235 24.8037 86.0235 24.0215C86.0235 23.2393 86.166 22.5499 86.4511 21.9533C86.7394 21.3534 87.1405 20.8861 87.6542 20.5513C88.1713 20.2133 88.7745 20.0442 89.4639 20.0442C89.8616 20.0442 90.2544 20.1105 90.6421 20.2431C91.0299 20.3757 91.3829 20.5911 91.7011 20.8894C92.0193 21.1844 92.2728 21.5755 92.4617 22.0627C92.6507 22.5499 92.7451 23.1498 92.7451 23.8624V24.3596H86.8588V23.3454H91.5519C91.5519 22.9145 91.4658 22.53 91.2934 22.192C91.1244 21.8539 90.8824 21.5871 90.5676 21.3915C90.256 21.196 89.8881 21.0982 89.4639 21.0982C88.9965 21.0982 88.5922 21.2142 88.2508 21.4462C87.9127 21.6749 87.6526 21.9732 87.4703 22.3411C87.288 22.709 87.1968 23.1034 87.1968 23.5243V24.2005C87.1968 24.7772 87.2963 25.2661 87.4951 25.6671C87.6973 26.0648 87.9774 26.3681 88.3353 26.5769C88.6933 26.7824 89.1092 26.8851 89.5832 26.8851C89.8914 26.8851 90.1698 26.8421 90.4184 26.7559C90.6703 26.6664 90.8874 26.5338 91.0697 26.3582C91.252 26.1792 91.3928 25.9571 91.4923 25.692L92.6258 26.0101C92.5065 26.3946 92.306 26.7327 92.0242 27.0243C91.7425 27.3127 91.3945 27.5381 90.9802 27.7005C90.5659 27.8596 90.1002 27.9391 89.5832 27.9391ZM99.939 21.8539L98.885 22.1522C98.8187 21.9765 98.721 21.8058 98.5917 21.6401C98.4658 21.4711 98.2934 21.3319 98.0747 21.2225C97.8559 21.1131 97.5758 21.0584 97.2345 21.0584C96.7671 21.0584 96.3777 21.1662 96.0661 21.3816C95.7579 21.5937 95.6038 21.8638 95.6038 22.192C95.6038 22.4836 95.7098 22.714 95.922 22.883C96.1341 23.052 96.4655 23.1929 96.9163 23.3056L98.0498 23.584C98.7326 23.7497 99.2413 24.0033 99.5761 24.3447C99.9108 24.6827 100.078 25.1186 100.078 25.6522C100.078 26.0897 99.9523 26.4808 99.7004 26.8255C99.4518 27.1702 99.1038 27.442 98.6563 27.6408C98.2089 27.8397 97.6885 27.9391 97.0953 27.9391C96.3164 27.9391 95.6717 27.7701 95.1613 27.432C94.6509 27.0939 94.3277 26.6001 94.1919 25.9505L95.3055 25.6721C95.4115 26.0831 95.6121 26.3913 95.907 26.5968C96.2053 26.8023 96.5948 26.905 97.0754 26.905C97.6222 26.905 98.0564 26.789 98.3779 26.557C98.7027 26.3217 98.8651 26.04 98.8651 25.7118C98.8651 25.4467 98.7723 25.2246 98.5867 25.0457C98.4011 24.8634 98.1161 24.7275 97.7316 24.638L96.4589 24.3397C95.7596 24.174 95.2458 23.9171 94.9177 23.5691C94.5929 23.2178 94.4305 22.7786 94.4305 22.2516C94.4305 21.8207 94.5515 21.4396 94.7934 21.1082C95.0387 20.7767 95.3718 20.5165 95.7927 20.3276C96.2169 20.1387 96.6975 20.0442 97.2345 20.0442C97.9901 20.0442 98.5834 20.21 99.0143 20.5414C99.4485 20.8728 99.7567 21.3103 99.939 21.8539ZM105.782 27.78V20.1437H106.955V27.78H105.782ZM106.378 18.8709C106.15 18.8709 105.953 18.7931 105.787 18.6373C105.624 18.4815 105.543 18.2942 105.543 18.0755C105.543 17.8567 105.624 17.6695 105.787 17.5137C105.953 17.3579 106.15 17.28 106.378 17.28C106.607 17.28 106.803 17.3579 106.965 17.5137C107.131 17.6695 107.214 17.8567 107.214 18.0755C107.214 18.2942 107.131 18.4815 106.965 18.6373C106.803 18.7931 106.607 18.8709 106.378 18.8709ZM110.277 23.1863V27.78H109.104V20.1437H110.238V21.3368H110.337C110.516 20.9491 110.788 20.6375 111.152 20.4022C111.517 20.1636 111.988 20.0442 112.564 20.0442C113.081 20.0442 113.534 20.1503 113.922 20.3624C114.309 20.5712 114.611 20.8894 114.826 21.317C115.042 21.7412 115.15 22.2781 115.15 22.9278V27.78H113.976V23.0073C113.976 22.4074 113.821 21.9401 113.509 21.6053C113.197 21.2672 112.77 21.0982 112.226 21.0982C111.852 21.0982 111.517 21.1794 111.222 21.3418C110.93 21.5042 110.7 21.7412 110.531 22.0528C110.362 22.3643 110.277 22.7422 110.277 23.1863ZM118.149 27.8596C117.903 27.8596 117.693 27.7717 117.517 27.5961C117.342 27.4204 117.254 27.21 117.254 26.9647C117.254 26.7194 117.342 26.509 117.517 26.3333C117.693 26.1576 117.903 26.0698 118.149 26.0698C118.394 26.0698 118.604 26.1576 118.78 26.3333C118.956 26.509 119.044 26.7194 119.044 26.9647C119.044 27.1271 119.002 27.2762 118.919 27.4121C118.84 27.548 118.732 27.6574 118.596 27.7403C118.464 27.8198 118.314 27.8596 118.149 27.8596ZM118.149 22.192C117.903 22.192 117.693 22.1041 117.517 21.9285C117.342 21.7528 117.254 21.5423 117.254 21.2971C117.254 21.0518 117.342 20.8413 117.517 20.6657C117.693 20.49 117.903 20.4022 118.149 20.4022C118.394 20.4022 118.604 20.49 118.78 20.6657C118.956 20.8413 119.044 21.0518 119.044 21.2971C119.044 21.4595 119.002 21.6086 118.919 21.7445C118.84 21.8804 118.732 21.9898 118.596 22.0726C118.464 22.1522 118.314 22.192 118.149 22.192Z" fill="white"/>
<path d="M139.374 22.1331V23.6104H134.215V22.1331H139.374ZM146.03 17.0536V28.6899H144.269V18.8149H144.201L141.417 20.6331V18.9513L144.32 17.0536H146.03ZM153.229 28.849C152.449 28.849 151.752 28.7146 151.138 28.4456C150.528 28.1767 150.045 27.8036 149.689 27.3263C149.337 26.8452 149.148 26.2884 149.121 25.6559H150.905C150.928 26.0005 151.043 26.2998 151.252 26.5536C151.464 26.8036 151.74 26.9968 152.081 27.1331C152.422 27.2695 152.801 27.3377 153.218 27.3377C153.676 27.3377 154.081 27.2581 154.434 27.099C154.79 26.9399 155.068 26.7184 155.269 26.4343C155.47 26.1464 155.57 25.8149 155.57 25.4399C155.57 25.0498 155.47 24.707 155.269 24.4115C155.072 24.1123 154.782 23.8774 154.4 23.707C154.021 23.5365 153.562 23.4513 153.025 23.4513H152.042V22.0195H153.025C153.456 22.0195 153.835 21.9418 154.161 21.7865C154.49 21.6312 154.748 21.4153 154.934 21.1388C155.119 20.8585 155.212 20.5309 155.212 20.1559C155.212 19.796 155.131 19.4835 154.968 19.2184C154.809 18.9494 154.581 18.7392 154.286 18.5877C153.994 18.4362 153.65 18.3604 153.252 18.3604C152.873 18.3604 152.519 18.4305 152.189 18.5706C151.864 18.707 151.598 18.904 151.394 19.1615C151.189 19.4153 151.079 19.7202 151.064 20.0763H149.365C149.384 19.4475 149.57 18.8945 149.922 18.4172C150.278 17.9399 150.748 17.5668 151.331 17.2979C151.915 17.029 152.562 16.8945 153.275 16.8945C154.021 16.8945 154.665 17.0403 155.206 17.332C155.752 17.6199 156.172 18.0043 156.468 18.4854C156.767 18.9665 156.915 19.493 156.911 20.0649C156.915 20.7165 156.733 21.2695 156.365 21.724C156.002 22.1786 155.517 22.4835 154.911 22.6388V22.7297C155.684 22.8471 156.282 23.154 156.706 23.6502C157.134 24.1464 157.346 24.7619 157.343 25.4968C157.346 26.1369 157.168 26.7108 156.809 27.2184C156.453 27.7259 155.966 28.1255 155.348 28.4172C154.731 28.7051 154.025 28.849 153.229 28.849ZM159.49 28.6899V27.4172L163.428 23.3377C163.848 22.8945 164.195 22.5062 164.468 22.1729C164.744 21.8358 164.951 21.5157 165.087 21.2127C165.223 20.9096 165.292 20.5877 165.292 20.2468C165.292 19.8604 165.201 19.5271 165.019 19.2468C164.837 18.9627 164.589 18.7449 164.275 18.5934C163.96 18.438 163.606 18.3604 163.212 18.3604C162.795 18.3604 162.432 18.4456 162.121 18.6161C161.81 18.7865 161.572 19.0271 161.405 19.3377C161.239 19.6483 161.155 20.0119 161.155 20.4286H159.479C159.479 19.7202 159.642 19.1009 159.968 18.5706C160.293 18.0403 160.74 17.6293 161.309 17.3377C161.877 17.0422 162.523 16.8945 163.246 16.8945C163.977 16.8945 164.621 17.0403 165.178 17.332C165.739 17.6199 166.176 18.0138 166.49 18.5138C166.805 19.01 166.962 19.5706 166.962 20.1956C166.962 20.6274 166.881 21.0498 166.718 21.4627C166.559 21.8755 166.28 22.3358 165.882 22.8434C165.485 23.3471 164.932 23.9589 164.223 24.6786L161.911 27.099V27.1843H167.15V28.6899H159.49ZM176.827 28.8604C176.123 28.8604 175.494 28.6805 174.941 28.3206C174.391 27.957 173.96 27.4399 173.645 26.7695C173.335 26.0952 173.179 25.2865 173.179 24.3434C173.179 23.4002 173.337 22.5934 173.651 21.9229C173.969 21.2524 174.405 20.7392 174.958 20.3831C175.511 20.0271 176.138 19.849 176.838 19.849C177.38 19.849 177.816 19.9399 178.145 20.1218C178.479 20.2998 178.736 20.5081 178.918 20.7468C179.104 20.9854 179.248 21.1956 179.35 21.3774H179.452V17.0536H181.151V28.6899H179.492V27.332H179.35C179.248 27.5176 179.1 27.7297 178.907 27.9684C178.717 28.207 178.456 28.4153 178.123 28.5934C177.789 28.7714 177.357 28.8604 176.827 28.8604ZM177.202 27.4115C177.691 27.4115 178.104 27.2827 178.441 27.0252C178.782 26.7638 179.039 26.4021 179.213 25.9399C179.391 25.4778 179.48 24.9399 179.48 24.3263C179.48 23.7202 179.393 23.1899 179.219 22.7354C179.045 22.2809 178.789 21.9267 178.452 21.6729C178.115 21.4191 177.698 21.2922 177.202 21.2922C176.691 21.2922 176.265 21.4248 175.924 21.6899C175.583 21.9551 175.325 22.3168 175.151 22.7752C174.98 23.2335 174.895 23.7505 174.895 24.3263C174.895 24.9096 174.982 25.4343 175.157 25.9002C175.331 26.3661 175.588 26.7354 175.929 27.0081C176.274 27.2771 176.698 27.4115 177.202 27.4115Z" fill="white"/>
<path d="M192.129 28.2695C191.883 28.2695 191.673 28.1817 191.497 28.006C191.322 27.8303 191.234 27.6199 191.234 27.3746C191.234 27.1293 191.322 26.9189 191.497 26.7432C191.673 26.5675 191.883 26.4797 192.129 26.4797C192.374 26.4797 192.584 26.5675 192.76 26.7432C192.936 26.9189 193.024 27.1293 193.024 27.3746C193.024 27.537 192.982 27.6862 192.899 27.822C192.82 27.9579 192.712 28.0673 192.576 28.1502C192.444 28.2297 192.294 28.2695 192.129 28.2695ZM192.129 22.6019C191.883 22.6019 191.673 22.514 191.497 22.3384C191.322 22.1627 191.234 21.9523 191.234 21.707C191.234 21.4617 191.322 21.2513 191.497 21.0756C191.673 20.8999 191.883 20.8121 192.129 20.8121C192.374 20.8121 192.584 20.8999 192.76 21.0756C192.936 21.2513 193.024 21.4617 193.024 21.707C193.024 21.8694 192.982 22.0185 192.899 22.1544C192.82 22.2903 192.712 22.3997 192.576 22.4826C192.444 22.5621 192.294 22.6019 192.129 22.6019Z" fill="white"/>
<path d="M202.344 22.1331V23.6104H197.185V22.1331H202.344ZM208.454 16.8945C208.973 16.8983 209.485 16.993 209.989 17.1786C210.492 17.3642 210.947 17.6672 211.352 18.0877C211.761 18.5081 212.087 19.0763 212.329 19.7922C212.576 20.5043 212.701 21.3907 212.704 22.4513C212.704 23.4702 212.602 24.3774 212.398 25.1729C212.193 25.9646 211.9 26.6331 211.517 27.1786C211.138 27.724 210.678 28.1388 210.136 28.4229C209.595 28.707 208.985 28.849 208.307 28.849C207.614 28.849 206.998 28.7127 206.46 28.4399C205.922 28.1672 205.485 27.7903 205.148 27.3093C204.811 26.8244 204.6 26.2676 204.517 25.6388H206.25C206.364 26.1388 206.595 26.5441 206.943 26.8547C207.295 27.1615 207.75 27.3149 208.307 27.3149C209.159 27.3149 209.824 26.9437 210.301 26.2013C210.778 25.4551 211.019 24.4134 211.023 23.0763H210.932C210.735 23.4021 210.489 23.6824 210.193 23.9172C209.901 24.1521 209.574 24.3339 209.21 24.4627C208.847 24.5915 208.458 24.6559 208.045 24.6559C207.375 24.6559 206.765 24.4911 206.216 24.1615C205.667 23.832 205.229 23.3793 204.903 22.8036C204.578 22.2278 204.415 21.5706 204.415 20.832C204.415 20.0971 204.581 19.4305 204.915 18.832C205.252 18.2335 205.722 17.76 206.324 17.4115C206.93 17.0593 207.64 16.8869 208.454 16.8945ZM208.46 18.3718C208.017 18.3718 207.617 18.4816 207.261 18.7013C206.909 18.9172 206.631 19.2108 206.426 19.582C206.222 19.9494 206.119 20.3585 206.119 20.8093C206.119 21.26 206.218 21.6691 206.415 22.0365C206.615 22.4002 206.888 22.6899 207.233 22.9059C207.581 23.118 207.979 23.224 208.426 23.224C208.759 23.224 209.07 23.1596 209.358 23.0309C209.646 22.9021 209.898 22.724 210.114 22.4968C210.329 22.2657 210.498 22.0043 210.619 21.7127C210.74 21.421 210.801 21.1142 210.801 20.7922C210.801 20.3642 210.699 19.9665 210.494 19.599C210.293 19.2316 210.017 18.9362 209.665 18.7127C209.312 18.4854 208.911 18.3718 208.46 18.3718ZM220.713 23.5081V28.6899H219.014V17.0536H220.69V21.3831H220.798C221.003 20.9134 221.315 20.5403 221.736 20.2638C222.156 19.9873 222.705 19.849 223.383 19.849C223.982 19.849 224.505 19.9721 224.952 20.2184C225.402 20.4646 225.751 20.832 225.997 21.3206C226.247 21.8055 226.372 22.4115 226.372 23.1388V28.6899H224.673V23.3434C224.673 22.7032 224.508 22.207 224.179 21.8547C223.849 21.4987 223.391 21.3206 222.804 21.3206C222.402 21.3206 222.043 21.4059 221.724 21.5763C221.41 21.7468 221.162 21.9968 220.98 22.3263C220.802 22.6521 220.713 23.046 220.713 23.5081Z" fill="white"/>
<path d="M237.309 28.2695C237.064 28.2695 236.853 28.1817 236.677 28.006C236.502 27.8303 236.414 27.6199 236.414 27.3746C236.414 27.1293 236.502 26.9189 236.677 26.7432C236.853 26.5675 237.064 26.4797 237.309 26.4797C237.554 26.4797 237.765 26.5675 237.94 26.7432C238.116 26.9189 238.204 27.1293 238.204 27.3746C238.204 27.537 238.162 27.6862 238.079 27.822C238 27.9579 237.892 28.0673 237.756 28.1502C237.624 28.2297 237.475 28.2695 237.309 28.2695ZM237.309 22.6019C237.064 22.6019 236.853 22.514 236.677 22.3384C236.502 22.1627 236.414 21.9523 236.414 21.707C236.414 21.4617 236.502 21.2513 236.677 21.0756C236.853 20.8999 237.064 20.8121 237.309 20.8121C237.554 20.8121 237.765 20.8999 237.94 21.0756C238.116 21.2513 238.204 21.4617 238.204 21.707C238.204 21.8694 238.162 22.0185 238.079 22.1544C238 22.2903 237.892 22.3997 237.756 22.4826C237.624 22.5621 237.475 22.6019 237.309 22.6019Z" fill="white"/>
<path d="M247.514 22.1331V23.6104H242.355V22.1331H247.514ZM253.65 28.849C252.87 28.849 252.173 28.7146 251.56 28.4456C250.95 28.1767 250.467 27.8036 250.111 27.3263C249.758 26.8452 249.569 26.2884 249.542 25.6559H251.327C251.349 26.0005 251.465 26.2998 251.673 26.5536C251.885 26.8036 252.162 26.9968 252.503 27.1331C252.844 27.2695 253.222 27.3377 253.639 27.3377C254.097 27.3377 254.503 27.2581 254.855 27.099C255.211 26.9399 255.489 26.7184 255.69 26.4343C255.891 26.1464 255.991 25.8149 255.991 25.4399C255.991 25.0498 255.891 24.707 255.69 24.4115C255.493 24.1123 255.203 23.8774 254.821 23.707C254.442 23.5365 253.984 23.4513 253.446 23.4513H252.463V22.0195H253.446C253.878 22.0195 254.256 21.9418 254.582 21.7865C254.912 21.6312 255.169 21.4153 255.355 21.1388C255.541 20.8585 255.633 20.5309 255.633 20.1559C255.633 19.796 255.552 19.4835 255.389 19.2184C255.23 18.9494 255.003 18.7392 254.707 18.5877C254.416 18.4362 254.071 18.3604 253.673 18.3604C253.294 18.3604 252.94 18.4305 252.611 18.5706C252.285 18.707 252.02 18.904 251.815 19.1615C251.611 19.4153 251.501 19.7202 251.486 20.0763H249.787C249.806 19.4475 249.991 18.8945 250.344 18.4172C250.7 17.9399 251.169 17.5668 251.753 17.2979C252.336 17.029 252.984 16.8945 253.696 16.8945C254.442 16.8945 255.086 17.0403 255.628 17.332C256.173 17.6199 256.594 18.0043 256.889 18.4854C257.188 18.9665 257.336 19.493 257.332 20.0649C257.336 20.7165 257.154 21.2695 256.787 21.724C256.423 22.1786 255.938 22.4835 255.332 22.6388V22.7297C256.105 22.8471 256.703 23.154 257.128 23.6502C257.556 24.1464 257.768 24.7619 257.764 25.4968C257.768 26.1369 257.59 26.7108 257.23 27.2184C256.874 27.7259 256.387 28.1255 255.77 28.4172C255.152 28.7051 254.446 28.849 253.65 28.849ZM263.753 28.849C263.041 28.849 262.4 28.7127 261.832 28.4399C261.268 28.1634 260.817 27.7846 260.48 27.3036C260.143 26.8225 259.963 26.2733 259.94 25.6559H261.645C261.686 26.1559 261.908 26.5668 262.31 26.8888C262.711 27.2108 263.192 27.3718 263.753 27.3718C264.2 27.3718 264.596 27.2695 264.94 27.0649C265.289 26.8566 265.561 26.5706 265.758 26.207C265.959 25.8434 266.06 25.4286 266.06 24.9627C266.06 24.4892 265.957 24.0668 265.753 23.6956C265.548 23.3244 265.266 23.0327 264.906 22.8206C264.55 22.6085 264.141 22.5005 263.679 22.4968C263.327 22.4968 262.972 22.5574 262.616 22.6786C262.26 22.7998 261.972 22.9589 261.753 23.1559L260.145 22.9172L260.798 17.0536H267.196V18.5593H262.258L261.889 21.8149H261.957C262.185 21.5952 262.486 21.4115 262.861 21.2638C263.239 21.1161 263.645 21.0422 264.077 21.0422C264.785 21.0422 265.416 21.2108 265.969 21.5479C266.525 21.885 266.963 22.3452 267.281 22.9286C267.603 23.5081 267.762 24.1748 267.758 24.9286C267.762 25.6824 267.592 26.3547 267.247 26.9456C266.906 27.5365 266.433 28.0024 265.827 28.3434C265.224 28.6805 264.533 28.849 263.753 28.849ZM274.091 28.6899V19.9627H275.721V21.3831H275.829C276.011 20.9021 276.309 20.5271 276.721 20.2581C277.134 19.9854 277.629 19.849 278.204 19.849C278.788 19.849 279.276 19.9854 279.67 20.2581C280.068 20.5309 280.362 20.9058 280.551 21.3831H280.642C280.85 20.9172 281.182 20.546 281.636 20.2695C282.091 19.9892 282.632 19.849 283.261 19.849C284.053 19.849 284.699 20.0971 285.199 20.5934C285.703 21.0896 285.954 21.8377 285.954 22.8377V28.6899H284.256V22.9968C284.256 22.4059 284.095 21.9778 283.773 21.7127C283.451 21.4475 283.066 21.3149 282.619 21.3149C282.066 21.3149 281.636 21.4854 281.329 21.8263C281.023 22.1634 280.869 22.5971 280.869 23.1274V28.6899H279.176V22.8888C279.176 22.4153 279.028 22.0346 278.733 21.7468C278.437 21.4589 278.053 21.3149 277.579 21.3149C277.257 21.3149 276.96 21.4002 276.687 21.5706C276.418 21.7373 276.201 21.9702 276.034 22.2695C275.871 22.5687 275.79 22.9153 275.79 23.3093V28.6899H274.091Z" fill="white"/>
<path d="M296.679 28.2695C296.434 28.2695 296.223 28.1817 296.048 28.006C295.872 27.8303 295.784 27.6199 295.784 27.3746C295.784 27.1293 295.872 26.9189 296.048 26.7432C296.223 26.5675 296.434 26.4797 296.679 26.4797C296.924 26.4797 297.135 26.5675 297.31 26.7432C297.486 26.9189 297.574 27.1293 297.574 27.3746C297.574 27.537 297.532 27.6862 297.45 27.822C297.37 27.9579 297.262 28.0673 297.126 28.1502C296.994 28.2297 296.845 28.2695 296.679 28.2695ZM296.679 22.6019C296.434 22.6019 296.223 22.514 296.048 22.3384C295.872 22.1627 295.784 21.9523 295.784 21.707C295.784 21.4617 295.872 21.2513 296.048 21.0756C296.223 20.8999 296.434 20.8121 296.679 20.8121C296.924 20.8121 297.135 20.8999 297.31 21.0756C297.486 21.2513 297.574 21.4617 297.574 21.707C297.574 21.8694 297.532 22.0185 297.45 22.1544C297.37 22.2903 297.262 22.3997 297.126 22.4826C296.994 22.5621 296.845 22.6019 296.679 22.6019Z" fill="white"/>
<path d="M306.894 22.1331V23.6104H301.735V22.1331H306.894ZM308.891 26.4172V24.9968L313.92 17.0536H315.039V19.1445H314.329L310.732 24.8377V24.9286H317.624V26.4172H308.891ZM314.408 28.6899V25.9854L314.42 25.3377V17.0536H316.084V28.6899H314.408ZM323.445 28.849C322.733 28.849 322.093 28.7127 321.525 28.4399C320.96 28.1634 320.509 27.7846 320.172 27.3036C319.835 26.8225 319.655 26.2733 319.633 25.6559H321.337C321.379 26.1559 321.6 26.5668 322.002 26.8888C322.403 27.2108 322.884 27.3718 323.445 27.3718C323.892 27.3718 324.288 27.2695 324.633 27.0649C324.981 26.8566 325.254 26.5706 325.451 26.207C325.652 25.8434 325.752 25.4286 325.752 24.9627C325.752 24.4892 325.65 24.0668 325.445 23.6956C325.241 23.3244 324.958 23.0327 324.598 22.8206C324.242 22.6085 323.833 22.5005 323.371 22.4968C323.019 22.4968 322.665 22.5574 322.309 22.6786C321.953 22.7998 321.665 22.9589 321.445 23.1559L319.837 22.9172L320.491 17.0536H326.888V18.5593H321.951L321.581 21.8149H321.65C321.877 21.5952 322.178 21.4115 322.553 21.2638C322.932 21.1161 323.337 21.0422 323.769 21.0422C324.477 21.0422 325.108 21.2108 325.661 21.5479C326.218 21.885 326.655 22.3452 326.974 22.9286C327.295 23.5081 327.455 24.1748 327.451 24.9286C327.455 25.6824 327.284 26.3547 326.939 26.9456C326.598 27.5365 326.125 28.0024 325.519 28.3434C324.917 28.6805 324.225 28.849 323.445 28.849ZM340.323 22.0934L338.783 22.3661C338.719 22.1691 338.616 21.9816 338.476 21.8036C338.34 21.6255 338.154 21.4797 337.92 21.3661C337.685 21.2524 337.391 21.1956 337.039 21.1956C336.558 21.1956 336.156 21.3036 335.834 21.5195C335.512 21.7316 335.351 22.0062 335.351 22.3434C335.351 22.635 335.459 22.8699 335.675 23.0479C335.891 23.2259 336.24 23.3718 336.721 23.4854L338.107 23.8036C338.91 23.9892 339.509 24.2752 339.902 24.6615C340.296 25.0479 340.493 25.5498 340.493 26.1672C340.493 26.6899 340.342 27.1559 340.039 27.5649C339.74 27.9702 339.321 28.2884 338.783 28.5195C338.249 28.7505 337.63 28.8661 336.925 28.8661C335.948 28.8661 335.151 28.6577 334.533 28.2411C333.916 27.8206 333.537 27.224 333.397 26.4513L335.039 26.2013C335.141 26.6293 335.351 26.9532 335.67 27.1729C335.988 27.3888 336.402 27.4968 336.914 27.4968C337.471 27.4968 337.916 27.3812 338.249 27.1502C338.582 26.9153 338.749 26.6293 338.749 26.2922C338.749 26.0195 338.647 25.7903 338.442 25.6047C338.241 25.4191 337.933 25.279 337.516 25.1843L336.039 24.8604C335.224 24.6748 334.622 24.3793 334.232 23.974C333.846 23.5687 333.652 23.0555 333.652 22.4343C333.652 21.9191 333.796 21.4684 334.084 21.082C334.372 20.6956 334.77 20.3945 335.277 20.1786C335.785 19.9589 336.366 19.849 337.022 19.849C337.965 19.849 338.707 20.0536 339.249 20.4627C339.791 20.868 340.149 21.4115 340.323 22.0934Z" fill="white"/>
</svg>
