<svg width="190" height="32" viewBox="0 0 190 32" fill="none" xmlns="http://www.w3.org/2000/svg">
<rect y="0.0800781" width="190" height="31" rx="15.5" fill="#E5E6F3"/>
<path d="M20.4271 6.0119V0.761896H20.9938V1.36843H21.0634C21.1065 1.30214 21.1662 1.21763 21.2424 1.11488C21.3203 1.01048 21.4313 0.917673 21.5755 0.83647C21.7213 0.75361 21.9185 0.71218 22.1671 0.71218C22.4886 0.71218 22.772 0.792554 23.0173 0.953302C23.2625 1.11405 23.4539 1.34192 23.5915 1.6369C23.729 1.93188 23.7978 2.27989 23.7978 2.68093C23.7978 3.08529 23.729 3.43578 23.5915 3.73242C23.4539 4.0274 23.2634 4.2561 23.0198 4.4185C22.7761 4.57925 22.4953 4.65962 22.1771 4.65962C21.9318 4.65962 21.7354 4.61902 21.5879 4.53782C21.4404 4.45496 21.3269 4.36133 21.2474 4.25692C21.1678 4.15086 21.1065 4.06303 21.0634 3.99343H21.0137V6.0119H20.4271ZM21.0038 2.67099C21.0038 2.95934 21.046 3.21372 21.1305 3.43413C21.2151 3.65288 21.3385 3.8244 21.5009 3.94869C21.6633 4.07132 21.8622 4.13263 22.0975 4.13263C22.3428 4.13263 22.5475 4.068 22.7115 3.93874C22.8772 3.80782 23.0015 3.63216 23.0844 3.41175C23.1689 3.18969 23.2112 2.94277 23.2112 2.67099C23.2112 2.40252 23.1697 2.16057 23.0869 1.94513C23.0057 1.72804 22.8822 1.55652 22.7165 1.43058C22.5524 1.30297 22.3461 1.23917 22.0975 1.23917C21.8589 1.23917 21.6584 1.29966 21.496 1.42063C21.3336 1.53995 21.2109 1.70733 21.1281 1.92276C21.0452 2.13654 21.0038 2.38595 21.0038 2.67099ZM24.6927 4.58008V0.761896H25.2595V1.3386H25.2992C25.3688 1.14968 25.4948 0.99639 25.6771 0.878728C25.8594 0.761067 26.0649 0.702237 26.2935 0.702237C26.3366 0.702237 26.3905 0.703066 26.4551 0.704723C26.5198 0.70638 26.5686 0.708866 26.6018 0.71218V1.30877C26.5819 1.3038 26.5363 1.29634 26.4651 1.2864C26.3955 1.2748 26.3217 1.269 26.2438 1.269C26.0582 1.269 25.8925 1.30794 25.7467 1.38583C25.6025 1.46206 25.4881 1.56812 25.4036 1.70401C25.3208 1.83825 25.2793 1.99154 25.2793 2.16388V4.58008H24.6927ZM22.0279 18.6596C21.66 18.6596 21.3427 18.5784 21.0759 18.416C20.8107 18.252 20.606 18.0233 20.4619 17.7299C20.3194 17.435 20.2481 17.0919 20.2481 16.7008C20.2481 16.3097 20.3194 15.965 20.4619 15.6667C20.606 15.3668 20.8066 15.1331 21.0634 14.9657C21.322 14.7967 21.6236 14.7122 21.9683 14.7122C22.1671 14.7122 22.3635 14.7453 22.5574 14.8116C22.7513 14.8779 22.9278 14.9856 23.0869 15.1348C23.246 15.2823 23.3727 15.4778 23.4672 15.7214C23.5617 15.965 23.6089 16.265 23.6089 16.6213V16.8699H20.6657V16.3627H23.0123C23.0123 16.1473 22.9692 15.9551 22.883 15.786C22.7985 15.617 22.6775 15.4836 22.5201 15.3858C22.3643 15.2881 22.1804 15.2392 21.9683 15.2392C21.7346 15.2392 21.5324 15.2972 21.3617 15.4132C21.1927 15.5275 21.0626 15.6767 20.9715 15.8606C20.8803 16.0446 20.8347 16.2418 20.8347 16.4522V16.7903C20.8347 17.0787 20.8845 17.3231 20.9839 17.5236C21.085 17.7225 21.225 17.8741 21.404 17.9785C21.583 18.0813 21.7909 18.1326 22.0279 18.1326C22.182 18.1326 22.3212 18.1111 22.4455 18.068C22.5715 18.0233 22.68 17.957 22.7712 17.8691C22.8623 17.7797 22.9328 17.6686 22.9825 17.536L23.5492 17.6951C23.4896 17.8874 23.3893 18.0564 23.2484 18.2022C23.1076 18.3464 22.9336 18.4591 22.7264 18.5403C22.5193 18.6199 22.2864 18.6596 22.0279 18.6596ZM23.5492 28.7619L22.1373 32.5801H21.5407L20.1288 28.7619H20.7651L21.8191 31.8045H21.8589L22.9129 28.7619H23.5492Z" fill="black"/>
<rect opacity="0.2" x="54" y="14.0801" width="7" height="7" rx="3.5" fill="black"/>
<rect opacity="0.2" x="69" y="14.0801" width="7" height="7" rx="3.5" fill="black"/>
<rect x="84" y="14.0801" width="7" height="7" rx="3.5" fill="#4B3EC4"/>
<rect opacity="0.2" x="99" y="14.0801" width="7" height="7" rx="3.5" fill="black"/>
<rect opacity="0.2" x="114" y="14.0801" width="7" height="7" rx="3.5" fill="black"/>
<rect opacity="0.2" x="129" y="14.0801" width="7" height="7" rx="3.5" fill="black"/>
<path d="M164.014 2.2832V4.58008H163.427V0.761896H163.994V1.35849H164.044C164.133 1.1646 164.269 1.00882 164.451 0.891158C164.634 0.77184 164.869 0.71218 165.157 0.71218C165.416 0.71218 165.642 0.765211 165.836 0.871271C166.03 0.975675 166.181 1.13477 166.288 1.34854C166.396 1.56067 166.45 1.82913 166.45 2.15394V4.58008H165.863V2.19371C165.863 1.89376 165.785 1.6601 165.629 1.49272C165.474 1.32369 165.26 1.23917 164.988 1.23917C164.801 1.23917 164.634 1.27977 164.486 1.36097C164.34 1.44218 164.225 1.56067 164.14 1.71644C164.056 1.87222 164.014 2.06114 164.014 2.2832ZM165.028 18.6596C164.66 18.6596 164.343 18.5784 164.076 18.416C163.811 18.252 163.606 18.0233 163.462 17.7299C163.319 17.435 163.248 17.0919 163.248 16.7008C163.248 16.3097 163.319 15.965 163.462 15.6667C163.606 15.3668 163.807 15.1331 164.063 14.9657C164.322 14.7967 164.624 14.7122 164.968 14.7122C165.167 14.7122 165.364 14.7453 165.557 14.8116C165.751 14.8779 165.928 14.9856 166.087 15.1348C166.246 15.2823 166.373 15.4778 166.467 15.7214C166.562 15.965 166.609 16.265 166.609 16.6213V16.8699H163.666V16.3627H166.012C166.012 16.1473 165.969 15.9551 165.883 15.786C165.799 15.617 165.678 15.4836 165.52 15.3858C165.364 15.2881 165.18 15.2392 164.968 15.2392C164.735 15.2392 164.532 15.2972 164.362 15.4132C164.193 15.5275 164.063 15.6767 163.971 15.8606C163.88 16.0446 163.835 16.2418 163.835 16.4522V16.7903C163.835 17.0787 163.884 17.3231 163.984 17.5236C164.085 17.7225 164.225 17.8741 164.404 17.9785C164.583 18.0813 164.791 18.1326 165.028 18.1326C165.182 18.1326 165.321 18.1111 165.446 18.068C165.571 18.0233 165.68 17.957 165.771 17.8691C165.862 17.7797 165.933 17.6686 165.982 17.536L166.549 17.6951C166.49 17.8874 166.389 18.0564 166.248 18.2022C166.108 18.3464 165.934 18.4591 165.726 18.5403C165.519 18.6199 165.286 18.6596 165.028 18.6596ZM163.865 28.7619L164.779 30.323L165.694 28.7619H166.37L165.137 30.671L166.37 32.5801H165.694L164.779 31.0985L163.865 32.5801H163.188L164.402 30.671L163.188 28.7619H163.865ZM168.868 28.7619V29.2591H166.889V28.7619H168.868ZM167.466 27.8471H168.053V31.4863C168.053 31.652 168.077 31.7763 168.125 31.8592C168.174 31.9404 168.237 31.9951 168.314 32.0233C168.391 32.0498 168.473 32.063 168.56 32.063C168.624 32.063 168.677 32.0597 168.719 32.0531C168.76 32.0448 168.793 32.0382 168.818 32.0332L168.937 32.5602C168.898 32.5751 168.842 32.59 168.771 32.6049C168.7 32.6215 168.609 32.6298 168.5 32.6298C168.334 32.6298 168.172 32.5942 168.013 32.5229C167.855 32.4516 167.724 32.3431 167.62 32.1973C167.517 32.0514 167.466 31.8675 167.466 31.6454V27.8471Z" fill="black"/>
</svg>
