<svg width="21" height="21" viewBox="0 0 21 21" fill="none" xmlns="http://www.w3.org/2000/svg">
<rect x="0.409668" y="0.799988" width="20" height="20" rx="10" fill="#4B3EC4"/>
<path d="M7.8535 14.3V13.5329L10.7342 10.3795C11.0723 10.0102 11.3507 9.68919 11.5694 9.41646C11.7882 9.1409 11.9501 8.88237 12.0552 8.6409C12.1632 8.39658 12.2171 8.1409 12.2171 7.87385C12.2171 7.56703 12.1433 7.30141 11.9955 7.07698C11.8507 6.85254 11.6518 6.67925 11.399 6.55709C11.1461 6.43493 10.862 6.37385 10.5467 6.37385C10.2115 6.37385 9.91884 6.44345 9.66884 6.58266C9.42168 6.71902 9.22992 6.91078 9.09356 7.15794C8.96004 7.4051 8.89328 7.69487 8.89328 8.02726H7.88759C7.88759 7.5159 8.00549 7.06703 8.24129 6.68067C8.47708 6.29431 8.79811 5.99317 9.20436 5.77726C9.61345 5.56135 10.0723 5.4534 10.5808 5.4534C11.0921 5.4534 11.5453 5.56135 11.9402 5.77726C12.335 5.99317 12.6447 6.28436 12.8691 6.65084C13.0936 7.01732 13.2058 7.42499 13.2058 7.87385C13.2058 8.19487 13.1475 8.50879 13.0311 8.81561C12.9174 9.11959 12.7186 9.45908 12.4345 9.83408C12.1532 10.2062 11.7626 10.6608 11.2626 11.1977L9.30237 13.2943V13.3625H13.3592V14.3H7.8535Z" fill="white"/>
</svg>
