<svg width="30" height="31" viewBox="0 0 30 31" fill="none" xmlns="http://www.w3.org/2000/svg">
<rect x="0.5" y="0.580078" width="29" height="29" rx="14.5" stroke="#999999" stroke-opacity="0.6"/>
<path d="M20.6717 10.7172C21.5151 11.435 21.9637 12.3502 22.0175 13.4627C22.0714 14.5753 21.7125 15.5173 20.9409 16.2889L15.746 21.6722C15.5666 21.8517 15.3602 21.9414 15.1269 21.9414C14.8936 21.9414 14.6873 21.8517 14.5078 21.6722L9.31295 16.2889C8.54135 15.5173 8.18246 14.5753 8.23629 13.4627C8.29012 12.3502 8.73873 11.435 9.58212 10.7172C10.3178 10.0892 11.1612 9.82001 12.1123 9.90973C13.0813 9.98151 13.9067 10.3673 14.5886 11.0671L15.1269 11.6055L15.6652 11.0671C16.3471 10.3673 17.1636 9.98151 18.1146 9.90973C19.0836 9.82001 19.936 10.0892 20.6717 10.7172Z" fill="black"/>
</svg>
