<svg width="31" height="31" viewBox="0 0 31 31" fill="none" xmlns="http://www.w3.org/2000/svg">
<rect x="1.08984" y="1.18994" width="29" height="29" rx="14.5" fill="#4B3EC4"/>
<rect x="1.08984" y="1.18994" width="29" height="29" rx="14.5" stroke="#4B3EC4"/>
<path d="M21.2616 11.3271C22.1049 12.0449 22.5536 12.96 22.6074 14.0726C22.6612 15.1851 22.3023 16.1272 21.5307 16.8988L16.3358 22.2821C16.1564 22.4615 15.95 22.5513 15.7168 22.5513C15.4835 22.5513 15.2771 22.4615 15.0977 22.2821L9.9028 16.8988C9.13119 16.1272 8.7723 15.1851 8.82614 14.0726C8.87997 12.96 9.32858 12.0449 10.172 11.3271C10.9077 10.699 11.7511 10.4299 12.7021 10.5196C13.6711 10.5914 14.4965 10.9772 15.1784 11.677L15.7168 12.2153L16.2551 11.677C16.937 10.9772 17.7534 10.5914 18.7045 10.5196C19.6735 10.4299 20.5258 10.699 21.2616 11.3271Z" fill="white"/>
</svg>
