<svg width="15" height="14" viewBox="0 0 15 14" fill="none" xmlns="http://www.w3.org/2000/svg">
<path d="M6.57617 1.27197C6.72852 0.967285 6.97396 0.814941 7.3125 0.814941C7.65104 0.814941 7.89648 0.967285 8.04883 1.27197L9.69922 4.62354L13.4062 5.18213C13.7448 5.21598 13.9648 5.39372 14.0664 5.71533C14.168 6.03695 14.1003 6.31624 13.8633 6.55322L11.1719 9.16846L11.8066 12.8755C11.8574 13.1971 11.7474 13.451 11.4766 13.6372C11.2057 13.8403 10.9264 13.8657 10.6387 13.7134L7.3125 11.9868L3.98633 13.7134C3.69857 13.8826 3.41927 13.8657 3.14844 13.6626C2.8776 13.4595 2.76758 13.1971 2.81836 12.8755L3.45312 9.16846L0.761719 6.55322C0.52474 6.31624 0.457031 6.03695 0.558594 5.71533C0.660156 5.39372 0.880208 5.21598 1.21875 5.18213L4.92578 4.62354L6.57617 1.27197Z" fill="#009900"/>
</svg>
