<svg width="17" height="19" viewBox="0 0 17 19" fill="none" xmlns="http://www.w3.org/2000/svg">
<path d="M12.875 5.67499H16.25V15.2375C16.25 16.0109 15.9688 16.6672 15.4062 17.2062C14.8672 17.7687 14.2109 18.05 13.4375 18.05H3.3125C2.53906 18.05 1.87109 17.7687 1.30859 17.2062C0.769531 16.6672 0.5 16.0109 0.5 15.2375V5.67499H3.875V4.54999C3.875 3.3078 4.30859 2.25311 5.17578 1.38593C6.06641 0.4953 7.13281 0.0499878 8.375 0.0499878C9.61719 0.0499878 10.6719 0.4953 11.5391 1.38593C12.4297 2.25311 12.875 3.3078 12.875 4.54999V5.67499ZM6.125 4.54999V5.67499H10.625V4.54999C10.625 3.94061 10.4023 3.41327 9.95703 2.96796C9.51172 2.52264 8.98438 2.29999 8.375 2.29999C7.76562 2.29999 7.23828 2.52264 6.79297 2.96796C6.34766 3.41327 6.125 3.94061 6.125 4.54999ZM11.1523 8.52264C11.3164 8.68671 11.5156 8.76874 11.75 8.76874C11.9844 8.76874 12.1836 8.68671 12.3477 8.52264C12.5117 8.35858 12.5938 8.15936 12.5938 7.92499C12.5938 7.69061 12.5117 7.49139 12.3477 7.32733C12.1836 7.16327 11.9844 7.08124 11.75 7.08124C11.5156 7.08124 11.3164 7.16327 11.1523 7.32733C10.9883 7.49139 10.9062 7.69061 10.9062 7.92499C10.9062 8.15936 10.9883 8.35858 11.1523 8.52264ZM4.40234 8.52264C4.56641 8.68671 4.76562 8.76874 5 8.76874C5.23438 8.76874 5.43359 8.68671 5.59766 8.52264C5.76172 8.35858 5.84375 8.15936 5.84375 7.92499C5.84375 7.69061 5.76172 7.49139 5.59766 7.32733C5.43359 7.16327 5.23438 7.08124 5 7.08124C4.76562 7.08124 4.56641 7.16327 4.40234 7.32733C4.23828 7.49139 4.15625 7.69061 4.15625 7.92499C4.15625 8.15936 4.23828 8.35858 4.40234 8.52264Z" fill="black"/>
</svg>
