<svg width="11" height="15" viewBox="0 0 11 15" fill="none" xmlns="http://www.w3.org/2000/svg">
<path d="M6.00625 1.48633C6.00625 1.99674 6.1612 2.47982 6.47109 2.93555C6.79922 3.39128 7.18203 3.81966 7.61953 4.2207C8.07526 4.62174 8.52187 5.05013 8.95937 5.50586C9.4151 5.96159 9.79792 6.54492 10.1078 7.25586C10.4359 7.94857 10.6 8.72331 10.6 9.58008C10.6 11.0202 10.0805 12.2507 9.04141 13.2715C8.02057 14.3105 6.7901 14.8301 5.35 14.8301C3.9099 14.8301 2.67031 14.3105 1.63125 13.2715C0.610417 12.2507 0.0999999 11.0202 0.0999999 9.58008C0.0999999 8.1582 0.601302 6.92773 1.60391 5.88867C1.80443 5.66992 2.04141 5.61523 2.31484 5.72461C2.58828 5.83398 2.725 6.04362 2.725 6.35352V8.67773C2.725 9.16992 2.88906 9.58919 3.21719 9.93555C3.56354 10.2819 3.9737 10.4551 4.44766 10.4551C4.93984 10.4551 5.35911 10.291 5.70547 9.96289C6.05182 9.61654 6.225 9.19727 6.225 8.70508C6.225 8.39518 6.13385 8.0944 5.95156 7.80273C5.7875 7.51107 5.58698 7.24674 5.35 7.00977C5.11302 6.77279 4.85781 6.52669 4.58437 6.27148C4.32917 6.01628 4.11042 5.73372 3.92812 5.42383C3.76406 5.11393 3.65469 4.76758 3.6 4.38477C3.54531 4.00195 3.60911 3.53711 3.79141 2.99023C3.99193 2.42513 4.32917 1.80534 4.80312 1.13086C4.98542 0.857422 5.23151 0.766276 5.54141 0.857422C5.8513 0.948568 6.00625 1.1582 6.00625 1.48633Z" fill="white"/>
</svg>
