<svg width="16" height="15" viewBox="0 0 16 15" fill="none" xmlns="http://www.w3.org/2000/svg">
<path d="M7.10195 1.32227C7.26602 0.994141 7.53034 0.830078 7.89492 0.830078C8.25951 0.830078 8.52383 0.994141 8.68789 1.32227L10.4652 4.93164L14.4574 5.5332C14.822 5.56966 15.059 5.76107 15.1684 6.10742C15.2777 6.45378 15.2048 6.75456 14.9496 7.00977L12.0512 9.82617L12.7348 13.8184C12.7895 14.1647 12.671 14.4382 12.3793 14.6387C12.0876 14.8574 11.7868 14.8848 11.477 14.7207L7.89492 12.8613L4.31289 14.7207C4.00299 14.903 3.70221 14.8848 3.41055 14.666C3.11888 14.4473 3.00039 14.1647 3.05508 13.8184L3.73867 9.82617L0.840234 7.00977C0.585026 6.75456 0.512109 6.45378 0.621484 6.10742C0.730859 5.76107 0.967838 5.56966 1.33242 5.5332L5.32461 4.93164L7.10195 1.32227Z" fill="black"/>
</svg>
